<svg id="图层_1" data-name="图层 1" xmlns="http://www.w3.org/2000/svg" viewBox="0 0 215.97 172.6"><defs><style>.cls-1{fill:#fff;}</style></defs><path class="cls-1" d="M153.63,112.6H133.09a5.84,5.84,0,0,1-4.38-2.38L107,76.65a1.6,1.6,0,0,0-2.6.17L60.48,148.65a1.58,1.58,0,0,0,1.35,2.41h0c39.1,0,78.2.09,117.3,0,3.5,0,5.49,1,7.25,4,3,5.08,6.28,10,9.63,15.09a1.59,1.59,0,0,1-1.33,2.46H20.21a1.61,1.61,0,0,1-1.35-2.49c29.06-44.6,57.93-88.9,87-133.55a1.61,1.61,0,0,1,2.7,0L155.06,110A1.69,1.69,0,0,1,153.63,112.6Z"/><path class="cls-1" d="M101.29,19.1a1.61,1.61,0,0,1-.05,1.63Q80.84,53,60.35,85.28C49.42,102.51,38.45,119.71,27.61,137a5,5,0,0,1-4.91,2.67c-6.87-.15-13.75-.06-20.63-.06H1.6a1.6,1.6,0,0,1-1.34-2.47L88.52.73a1.6,1.6,0,0,1,2.75.1Z"/><path class="cls-1" d="M93.26,119.55a4.69,4.69,0,0,0-4.6,2.55c-3.57,5.77-7.17,11.51-10.85,17.21l0,.07a1.43,1.43,0,0,0,1.2,2.21H214.52a1.44,1.44,0,0,0,1.2-2.24q-7.8-11.82-15.59-23.6l-73.78-114a1.45,1.45,0,0,0-2.49.09l-9.68,17.65a2.77,2.77,0,0,0,.08,2.82l59.32,95.19a1.38,1.38,0,0,1-1.17,2.11Z"/><path class="cls-1" d="M117.4,112.6H94.62a1,1,0,0,1-.86-1.59l11.16-17.22a1,1,0,0,1,1.72,0L118.24,111A1,1,0,0,1,117.4,112.6Z"/></svg>